<svg xmlns="http://www.w3.org/2000/svg" viewBox="0 0 24 24" width="24" height="24" fill="none" stroke="currentColor" stroke-width="2" stroke-linecap="round" stroke-linejoin="round" role="img" aria-label="Settings">
  <title>Settings</title>
  <circle cx="12" cy="12" r="3"/><path d="M19.4 15a1.6 1.6 0 0 0 .3 1.8l.1.1-2 3.4-.2-.1a1.6 1.6 0 0 0-1.8.3l-.2.1a1.6 1.6 0 0 0-.8 1.5V22H9.2v-.1a1.6 1.6 0 0 0-.8-1.5l-.2-.1a1.6 1.6 0 0 0-1.8-.3l-.2.1-2-3.4.1-.1A1.6 1.6 0 0 0 4.6 15v-.2A1.6 1.6 0 0 0 3.3 14H3v-4h.3a1.6 1.6 0 0 0 1.3-.8V9A1.6 1.6 0 0 0 4.3 7.2l-.1-.1 2-3.4.2.1a1.6 1.6 0 0 0 1.8-.3l.2-.1A1.6 1.6 0 0 0 9.2 2h5.6v.1a1.6 1.6 0 0 0 .8 1.5l.2.1a1.6 1.6 0 0 0 1.8.3l.2-.1 2 3.4-.1.1A1.6 1.6 0 0 0 19.4 9v.2a1.6 1.6 0 0 0 1.3.8h.3v4h-.3a1.6 1.6 0 0 0-1.3.8V15Z"/>
</svg>
