<svg xmlns="http://www.w3.org/2000/svg" viewBox="0 0 24 24" width="24" height="24" fill="none" stroke="currentColor" stroke-width="2" stroke-linecap="round" stroke-linejoin="round" role="img" aria-label="Phone">
  <title>Phone</title>
  <path d="M22 16.9v3a2 2 0 0 1-2.2 2 19.8 19.8 0 0 1-8.6-3.1 19.5 19.5 0 0 1-6-6A19.8 19.8 0 0 1 2.1 4.2 2 2 0 0 1 4.1 2h3a2 2 0 0 1 2 1.7c.1 1 .3 2 .7 2.9a2 2 0 0 1-.4 2.1L8.1 10a16 16 0 0 0 6 6l1.3-1.3a2 2 0 0 1 2.1-.4c.9.4 1.9.6 2.9.7A2 2 0 0 1 22 16.9Z"/>
</svg>
